<?xml version="1.0" encoding="UTF-8"?>
<svg width="30px" height="30px" viewBox="0 0 30 30" version="1.1" xmlns="http://www.w3.org/2000/svg" xmlns:xlink="http://www.w3.org/1999/xlink">
    <title>arrow_up</title>
    <g id="arrow_up" stroke="none" stroke-width="1" fill="none" fill-rule="evenodd">
        <g id="Wallet">
            <rect id="Rectangle-3" x="0" y="0" width="30" height="30"></rect>
            <path d="M14.3997479,19.3422598 C14.5588858,19.5171282 14.7748295,19.6153846 15.0000097,19.6153846 C15.2251899,19.6153846 15.4411336,19.5171282 15.6002714,19.3422598 L21.7513635,12.5906578 C22.0828789,12.2267777 22.0828788,11.6368115 21.7513634,11.2729314 C21.4198481,10.9090513 20.8823554,10.9090512 20.55084,11.2729313 L15.0000097,17.3656701 L9.44917939,11.2729313 C9.23472653,11.0375422 8.92215466,10.9456122 8.62920659,11.0317706 C8.33625852,11.117929 8.10744004,11.3690863 8.02894484,11.6906339 C7.95044965,12.0121815 8.03420303,12.3552686 8.24865591,12.5906578 L14.3997479,19.3422598 Z" id="Shape" fill="#ffffff" fill-rule="nonzero" transform="translate(15.000000, 15.307692) scale(1, -1) translate(-15.000000, -15.307692) "></path>
        </g>
    </g>
</svg>